# xmcd
#
# Track frame offsets: 
#        150
#        12037
#        25739
#        37956
#        52305
#        64549
#        78696
#        90214
#        104389
#        117591
#        131217
#        147175
#        159022
#        170664
#        184049
#        197294
#        210093
#        219509
#        229011
#        240455
#        251879
#        263843
#        275347
#        286319
#        296135
#        306319
#        319522
#        329890
#
# Disc length: 4684 seconds
#
# Revision: 0
# Processed by: cddbd v1.5.2PL0 Copyright (c) Steve Scherf et al.
# Submitted via: ExactAudioCopy v0.95a3
#
DISCID=93124a1c
DTITLE=Big Maybelle - I've got a feelin'
DYEAR=1900
DGENRE=Blues
TTITLE0=Gabbin' blues (aka Don't run my business)
TTITLE1=Rain down rain
TTITLE2=Way back home
TTITLE3=Just want your love
TTITLE4=Jinny Mule
TTITLE5=Send for me
TTITLE6=My country man
TTITLE7=Maybelle's blues
TTITLE8=I've got a feelin'
TTITLE9=You'll never know
TTITLE10=I'm gettin' 'long alright
TTITLE11=My big mistake
TTITLE12=Don't leave poor me
TTITLE13=Ain't no use
TTITLE14=Whole lotta shakin' goin' on
TTITLE15=One monkey don't stop no show
TTITLE16=The other night
TTITLE17=Such a cutie
TTITLE18=New kind of mambo
TTITLE19=So good to my baby
TTITLE20=Candy
TTITLE21=That's a pretty good love
TTITLE22=Mean to me
TTITLE23=Tell me who
TTITLE24=Ring dang dilly
TTITLE25=Pitiful
TTITLE26=I don't want to cry
TTITLE27=Ring dang dilly - Candy (live)
EXTD=
EXTT0=
EXTT1=
EXTT2=
EXTT3=
EXTT4=
EXTT5=
EXTT6=
EXTT7=
EXTT8=
EXTT9=
EXTT10=
EXTT11=
EXTT12=
EXTT13=
EXTT14=
EXTT15=
EXTT16=
EXTT17=
EXTT18=
EXTT19=
EXTT20=
EXTT21=
EXTT22=
EXTT23=
EXTT24=
EXTT25=
EXTT26=
EXTT27=
PLAYORDER=
